PathFileType	4	(X/Y/Z)	C:\Users\Graham\Documents\MATLAB\MOtoNMS_v2_2\MyData\ElaboratedData\S2\17-05-16\staticElaborations\Static1\Static1\\Static1.trc
DataRate	CameraRate	NumFrames	NumMarkers	Units	OrigDataRate	DataStartFrame
100	100	5	38	mm	100	2
Frame#	Time	V_Sacral			R_ASIS			L_ASIS			R_Knee_Lat			R_Knee_Med			R_Thigh_Upper			R_Thigh_Front			R_Thigh_Rear			L_Knee_Lat			L_Knee_Med			L_Thigh_Upper			L_Thigh_Front			L_Thigh_Rear			R_Ankle_Lat			R_Ankle_Med			R_Shank_Upper			R_Shank_Front			R_Shank_Rear			L_Ankle_Lat			L_Ankle_Med			L_Shank_Upper			L_Shank_Front			L_Shank_Rear			R_Heel			R_MTP1			R_MTP5			L_Heel			L_MTP1			L_MTP5			Clavicle			R_Acromium			L_Acromium			LAJC			RAJC			LHJC			RHJC			LKJC			RKJC		
		X1	Y1	Z1	X2	Y2	Z2	X3	Y3	Z3	X4	Y4	Z4	X5	Y5	Z5	X6	Y6	Z6	X7	Y7	Z7	X8	Y8	Z8	X9	Y9	Z9	X10	Y10	Z10	X11	Y11	Z11	X12	Y12	Z12	X13	Y13	Z13	X14	Y14	Z14	X15	Y15	Z15	X16	Y16	Z16	X17	Y17	Z17	X18	Y18	Z18	X19	Y19	Z19	X20	Y20	Z20	X21	Y21	Z21	X22	Y22	Z22	X23	Y23	Z23	X24	Y24	Z24	X25	Y25	Z25	X26	Y26	Z26	X27	Y27	Z27	X28	Y28	Z28	X29	Y29	Z29	X30	Y30	Z30	X31	Y31	Z31	X32	Y32	Z32	X33	Y33	Z33	X34	Y34	Z34	X35	Y35	Z35	X36	Y36	Z36	X37	Y37	Z37	X38	Y38	Z38	

177	1.760000	158.551337	1005.220325	29.017145	365.113185	1017.897289	149.381020	354.410558	1026.995995	-86.084524	235.564744	519.034993	217.414575	241.746075	512.905418	108.325701	381.028638	741.330771	169.063829	334.631461	637.185451	139.248419	319.718302	649.097263	200.573331	252.135505	535.204220	-146.531108	244.952544	509.488516	-36.261873	356.320533	782.600992	-139.345562	351.712178	667.111626	-112.506545	298.974766	671.390295	-159.416159	187.905114	106.794044	244.159724	220.016284	107.761326	158.969507	266.033173	374.349969	220.055907	255.747612	258.744772	187.202339	214.079678	262.457417	253.765259	212.985104	90.977742	-182.652673	252.759926	113.271255	-101.818124	276.627194	357.027926	-163.042619	271.653529	245.574389	-129.141017	225.047411	250.646646	-190.270335	123.289030	62.972932	194.031876	354.907139	67.701927	200.250129	333.725570	51.271011	282.510280	147.229126	63.837836	-129.724725	388.571788	64.282134	-158.050401	354.541786	50.257993	-235.520362	328.079132	1392.786776	31.044530	230.996402	1441.983297	225.372868	262.761246	1442.241140	-172.237142	232.872515	102.124499	-142.235398	203.960699	107.277685	201.564616	304.807763	939.330003	-54.358826	312.533934	932.761695	115.622521	248.544025	522.346368	-91.396491	238.655409	515.970206	162.870138	
178	1.770000	158.472440	1005.206671	28.960894	365.018530	1017.928676	149.356302	354.342040	1027.007249	-86.112885	235.573461	519.031057	217.381508	241.907222	513.017008	108.350492	380.986257	741.377688	169.055831	334.644598	637.212180	139.241482	319.698690	649.120279	200.559085	252.117624	535.202866	-146.538744	244.966261	509.486058	-36.266916	356.286012	782.610501	-139.367520	351.686607	667.119389	-112.525670	298.939929	671.393809	-159.425366	187.913637	106.797232	244.150878	220.020364	107.759292	158.956404	266.043844	374.341528	220.028495	255.758569	258.735778	187.181821	214.092759	262.463023	253.747765	212.984371	90.974208	-182.652386	252.765504	113.276063	-101.807586	276.617506	357.022832	-163.050394	271.650316	245.570394	-129.145650	225.036882	250.639206	-190.269836	123.291596	62.974212	194.027739	354.907565	67.698967	200.246286	333.725778	51.273143	282.506801	147.230695	63.835819	-129.723055	388.572853	64.281161	-158.050945	354.540175	50.256892	-235.522136	328.049285	1392.820497	30.946334	230.920141	1441.998929	225.274481	262.706868	1442.238768	-172.347884	232.874938	102.125136	-142.229986	203.967001	107.278262	201.553641	304.750651	939.334568	-54.385944	312.457949	932.780797	115.597929	248.541943	522.344462	-91.402830	238.740341	516.024032	162.866000	
179	1.780000	158.388742	1005.195279	28.908354	364.921906	1017.958836	149.332517	354.268621	1027.016967	-86.139844	235.576223	519.028896	217.350850	242.090143	513.161496	108.401823	380.937600	741.424670	169.048801	334.649804	637.237988	139.236780	319.672799	649.143488	200.547208	252.090456	535.200815	-146.543779	244.970467	509.482683	-36.269252	356.244337	782.619064	-139.387237	351.651536	667.125964	-112.542323	298.896099	671.396103	-159.432792	187.921308	106.800054	244.142692	220.024200	107.758139	158.943736	266.050125	374.334872	220.003482	255.767659	258.729514	187.162696	214.102445	262.468777	253.731440	212.983104	90.970397	-182.651369	252.767411	113.277835	-101.802998	276.600884	357.019032	-163.056663	271.643616	245.566993	-129.149378	225.021755	250.631780	-190.267838	123.293900	62.976078	194.023934	354.905270	67.695095	200.242900	333.725513	51.274807	282.503482	147.232240	63.833480	-129.721253	388.573021	64.279419	-158.052014	354.538087	50.255983	-235.523979	328.020797	1392.855445	30.843568	230.847728	1442.017661	225.172267	262.656505	1442.237687	-172.461979	232.875257	102.124116	-142.227183	203.972754	107.279096	201.543214	304.687176	939.338669	-54.410859	312.377719	932.799658	115.575223	248.530461	522.341749	-91.406515	238.833183	516.095196	162.876336	
180	1.790000	158.301034	1005.186644	28.859774	364.823497	1017.987203	149.310386	354.191709	1027.024986	-86.164433	235.571795	519.028666	217.323681	242.282233	513.328778	108.475332	380.881998	741.470857	169.043566	334.645217	637.262167	139.234967	319.639711	649.166958	200.538391	252.054731	535.198028	-146.546357	244.963874	509.478571	-36.269456	356.195993	782.626579	-139.403643	351.607400	667.131265	-112.555433	298.844813	671.397076	-159.438298	187.927246	106.802430	244.135634	220.027408	107.757900	158.932179	266.050857	374.330440	219.981875	255.773808	258.726099	187.145876	214.107541	262.474338	253.716854	212.981314	90.966409	-182.649758	252.764826	113.275760	-101.806026	276.577800	357.016522	-163.061425	271.633510	245.564226	-129.152133	225.002650	250.624456	-190.264709	123.295648	62.978412	194.020768	354.900332	67.690503	200.240107	333.724839	51.275967	282.500479	147.233547	63.830940	-129.719557	388.572152	64.277019	-158.053579	354.535741	50.255310	-235.525628	327.992601	1392.891264	30.738136	230.778069	1442.039954	225.067379	262.610214	1442.237803	-172.577781	232.873070	102.121085	-142.227892	203.977327	107.280165	201.533907	304.618214	939.342396	-54.433036	312.293236	932.818076	115.554777	248.509302	522.338299	-91.407906	238.927014	516.178722	162.899506	
181	1.800000	158.210298	1005.181387	28.815163	364.723502	1018.013359	149.290581	354.112903	1027.031258	-86.185738	235.559203	519.030368	217.300948	242.467579	513.504750	108.563630	380.818865	741.515380	169.040847	334.629267	637.284091	139.236573	319.598529	649.190609	200.533181	252.011311	535.194562	-146.546890	244.945508	509.473952	-36.268286	356.141579	782.632936	-139.415963	351.554786	667.135233	-112.564189	298.787729	671.396754	-159.441933	187.930695	106.804297	244.130131	220.029623	107.758507	158.922417	266.045057	374.328509	219.964488	255.775898	258.725404	187.132199	214.107126	262.479398	253.704625	212.979016	90.962321	-182.647805	252.757633	113.269776	-101.817004	276.548888	357.015274	-163.064871	271.620134	245.562167	-129.153996	224.980283	250.617307	-190.260961	123.296647	62.980953	194.018532	354.893015	67.685400	200.238034	333.723839	51.276611	282.497950	147.234392	63.828332	-129.718208	388.570235	64.274185	-158.055543	354.533400	50.254920	-235.526832	327.963839	1392.927644	30.632149	230.709963	1442.066071	224.961184	262.568010	1442.239247	-172.693426	232.868325	102.116048	-142.232405	203.980159	107.281402	201.526274	304.544837	939.345957	-54.452015	312.204563	932.835990	115.536894	248.478410	522.334257	-91.407588	239.013391	516.267559	162.932289	
